<svg width="24" height="24" viewBox="0 0 24 24" fill="none" xmlns="http://www.w3.org/2000/svg">
<path d="M7.5 11.9999V5.93774L12.75 8.96884L18 11.9999L12.75 15.031L7.5 18.0621V11.9999Z" fill="#1C1B1E"/>
<path fill-rule="evenodd" clip-rule="evenodd" d="M7.125 5.28822C7.35705 5.15425 7.64295 5.15425 7.875 5.28823L18.375 11.3504C18.6071 11.4844 18.75 11.732 18.75 11.9999C18.75 12.2679 18.6071 12.5155 18.375 12.6495L7.875 18.7117C7.64295 18.8456 7.35705 18.8456 7.125 18.7117C6.89295 18.5777 6.75 18.3301 6.75 18.0621V5.93774C6.75 5.66979 6.89295 5.4222 7.125 5.28822ZM8.25 7.23678V16.7631L16.5 11.9999L8.25 7.23678Z" fill="#1C1B1E"/>
</svg>
