<svg width="24" height="24" viewBox="0 0 24 24" fill="none" xmlns="http://www.w3.org/2000/svg">
<path fill-rule="evenodd" clip-rule="evenodd" d="M20.8975 9.61258C21.1904 9.90548 21.1904 10.3804 20.8975 10.6732L16.6548 14.9159C16.3619 15.2088 15.8871 15.2088 15.5942 14.9159C15.3013 14.623 15.3013 14.1481 15.5942 13.8552L19.8368 9.61258C20.1297 9.31969 20.6046 9.31969 20.8975 9.61258Z" fill="#1C1B1E"/>
<path fill-rule="evenodd" clip-rule="evenodd" d="M15.5947 9.61258C15.8876 9.31969 16.3624 9.31969 16.6553 9.61258L20.898 13.8552C21.1909 14.1481 21.1909 14.623 20.898 14.9159C20.6051 15.2088 20.1302 15.2088 19.8373 14.9159L15.5947 10.6732C15.3018 10.3804 15.3018 9.90548 15.5947 9.61258Z" fill="#1C1B1E"/>
<path d="M12 3V21C8.5 21 5.89925 16.4195 5.89925 16.4195H3C2.44771 16.4195 2 15.9718 2 15.4195V8.5054C2 7.9531 2.44771 7.5054 3 7.5054H5.89925C5.89925 7.5054 8.5 3 12 3Z" fill="#1C1B1E"/>
<path fill-rule="evenodd" clip-rule="evenodd" d="M6.54861 7.88067C6.54867 7.88056 6.54874 7.88046 6.5488 7.88035L6.54861 7.88067ZM6.5488 7.88035L6.54896 7.88008L6.55283 7.87348L6.57154 7.84216C6.58883 7.81349 6.61567 7.76965 6.65162 7.71283C6.72359 7.59909 6.83176 7.43384 6.97279 7.23429C7.2558 6.83383 7.66619 6.30228 8.17663 5.77369C9.04051 4.8791 10.101 4.08557 11.25 3.83329V20.165C10.1049 19.9085 9.0457 19.1037 8.18091 18.1933C7.67013 17.6555 7.25943 17.1147 6.97613 16.7072C6.83497 16.5041 6.72667 16.3359 6.65459 16.2201C6.61857 16.1622 6.59169 16.1176 6.57434 16.0883L6.55556 16.0563L6.55165 16.0496L6.55145 16.0492C6.55139 16.0491 6.55133 16.049 6.55127 16.0489C6.55125 16.0489 6.55123 16.0488 6.55121 16.0488C6.55119 16.0488 6.55117 16.0487 6.55115 16.0487C6.55113 16.0487 6.55111 16.0486 6.5511 16.0486C6.41776 15.8143 6.16889 15.6695 5.89925 15.6695H3C2.86192 15.6695 2.75 15.5576 2.75 15.4195V8.5054C2.75 8.36732 2.86192 8.2554 3 8.2554H5.89925C6.1671 8.2554 6.4146 8.11256 6.54861 7.88067M5.48053 17.1695C5.5527 17.2815 5.64099 17.4145 5.74448 17.5633C6.0582 18.0146 6.51643 18.6189 7.09334 19.2263C8.21786 20.4102 9.93033 21.75 12 21.75C12.4142 21.75 12.75 21.4142 12.75 21V3C12.75 2.58579 12.4142 2.25 12 2.25C9.93524 2.25 8.22393 3.56536 7.09762 4.73171C6.52037 5.32947 6.06182 5.92427 5.74782 6.36857C5.64452 6.51474 5.55634 6.64537 5.48419 6.7554H3C2.03351 6.7554 1.25 7.53888 1.25 8.5054V15.4195C1.25 16.3861 2.03351 17.1695 3 17.1695H5.48053Z" fill="#1C1B1E"/>
</svg>
